<?xml version="1.0" encoding="UTF-8"?>
<svg width="33px" height="33px" viewBox="0 0 33 33" version="1.1" xmlns="http://www.w3.org/2000/svg" xmlns:xlink="http://www.w3.org/1999/xlink">
    <!-- Generator: Sketch 54.1 (76490) - https://sketchapp.com -->
    <title>facebook</title>
    <desc>Created with Sketch.</desc>
    <g id="remark" stroke="none" stroke-width="1" fill="none" fill-rule="evenodd">
        <g id="facebook" fill-rule="nonzero">
            <path d="M31.1663371,32.9870225 C32.1716629,32.9870225 32.9867753,32.1717865 32.9867753,31.1664607 L32.9867753,1.8205618 C32.9867753,0.814865169 32.1715393,0 31.1663371,0 L1.8205618,0 C0.814865169,0 0,0.814988764 0,1.8205618 L0,31.1663371 C0,32.1717865 0.814865169,32.9868989 1.8205618,32.9868989 L31.1663371,32.9868989 L31.1663371,32.9870225 Z" id="Path" fill="#485A96"></path>
            <path d="M22.7603596,32.9870225 L22.7603596,20.2126854 L27.0481348,20.2126854 L27.6900899,15.2342584 L22.760236,15.2342584 L22.760236,12.0557528 C22.760236,10.614382 23.1604382,9.63216854 25.2274494,9.63216854 L27.863618,9.63093258 L27.863618,5.1782809 C27.4076742,5.1177191 25.8427079,4.98213483 24.0222697,4.98213483 C20.2213371,4.98213483 17.6191573,7.30214607 17.6191573,11.5628539 L17.6191573,15.2342584 L13.320382,15.2342584 L13.320382,20.2126854 L17.6191573,20.2126854 L17.6191573,32.9868989 L22.7603596,32.9868989 L22.7603596,32.9870225 Z" id="Path" fill="#FFFFFF"></path>
        </g>
    </g>
</svg>