<?xml version="1.0" encoding="UTF-8"?>
<svg width="33px" height="33px" viewBox="0 0 33 33" version="1.1" xmlns="http://www.w3.org/2000/svg" xmlns:xlink="http://www.w3.org/1999/xlink">
    <!-- Generator: Sketch 54.1 (76490) - https://sketchapp.com -->
    <title>twitter</title>
    <desc>Created with Sketch.</desc>
    <g id="twitter" stroke="none" stroke-width="1" fill="none" fill-rule="evenodd">
        <g transform="translate(1.000000, 4.000000)" fill="#5DA8DC" fill-rule="nonzero" id="Path" stroke="#5DA8DC" stroke-width="1.12663362">
            <path d="M20.5203703,0.00553856149 L20.5203703,0 L21.9603963,0 L22.4865596,0.105232668 C22.8373444,0.173550824 23.1558117,0.263081671 23.4419615,0.373852901 C23.728139,0.48462413 24.0050671,0.613866463 24.2727457,0.761552205 C24.5404521,0.909237947 24.7832349,1.05972066 25.0010943,1.21294497 C25.2170982,1.36434154 25.4109478,1.52495983 25.5826432,1.69479982 C25.7524555,1.86649522 26.0173926,1.91080371 26.3773991,1.82772529 C26.7374056,1.74464687 27.1251049,1.62925094 27.540497,1.4815652 C27.9558891,1.33387946 28.3666842,1.16772261 28.7728269,0.983094664 C29.1789973,0.798466717 29.4264049,0.681243063 29.5150219,0.63139601 C29.6017834,0.579721231 29.6479473,0.552028424 29.6534859,0.548317588 L29.6589968,0.540009745 L29.6866896,0.526163342 L29.7143824,0.512316938 L29.7420752,0.498470534 L29.769768,0.48462413 L29.7753066,0.476316288 L29.7836144,0.470777727 L29.7919499,0.465239165 L29.7974608,0.456931323 L29.8251536,0.448623481 L29.8528464,0.443084919 L29.8473356,0.48462413 L29.839,0.526163342 L29.8251536,0.567702553 L29.8113072,0.609241764 L29.7974608,0.636934571 L29.7836144,0.664627379 L29.769768,0.70616659 C29.7605463,0.733859397 29.7513246,0.77077391 29.7420752,0.81693782 C29.7328535,0.86310173 29.6451504,1.04770198 29.4789935,1.37079397 C29.3128367,1.69388595 29.1051406,2.02157494 28.8559054,2.35388863 C28.6066701,2.68620232 28.3832999,2.93726531 28.1857671,3.107133 C27.9863789,3.2788284 27.8543673,3.39882134 27.7897323,3.46713949 C27.725125,3.53728537 27.6466712,3.60189269 27.5543434,3.66098914 L27.4158794,3.75237541 L27.3881866,3.76622181 L27.3604938,3.78006822 L27.3549829,3.78837606 L27.3466474,3.79391462 L27.3383395,3.79945318 L27.332801,3.80776102 L27.3051081,3.82160743 L27.2774153,3.83545383 L27.2719045,3.84376167 L27.2635689,3.84930024 L27.2552611,3.8548388 L27.2497225,3.86314664 L27.2442117,3.87145448 L27.2358761,3.87699304 L27.2275683,3.8825316 L27.2220297,3.89083945 L27.3604938,3.89083945 L28.1358924,3.7246826 C28.652834,3.61391137 29.1466798,3.48007203 29.6174576,3.32313689 L30.3651634,3.07390163 L30.4482418,3.04620882 L30.489781,3.03236242 L30.5174738,3.01851601 L30.5451666,3.00466961 L30.5728594,2.9908232 L30.6005522,2.9769768 L30.6559378,2.96866896 L30.7113235,2.9631304 L30.7113235,3.01851601 L30.6974771,3.02405457 L30.6836307,3.03236242 L30.6781198,3.04067026 L30.6697843,3.04620882 L30.6614764,3.05174738 L30.6559378,3.06005522 L30.650427,3.06836307 L30.6420914,3.07390163 L30.6337836,3.07944019 L30.628245,3.08774803 L30.6227342,3.09605587 L30.6143986,3.10159443 L30.6005522,3.12928724 L30.5867058,3.15698005 L30.578398,3.16251861 C30.5747148,3.16805717 30.4574912,3.32496462 30.2266993,3.63329634 C29.9959352,3.94345578 29.8713175,4.10036323 29.8528464,4.10407406 C29.834403,4.10961263 29.8085379,4.13730543 29.7753066,4.18715249 C29.7439306,4.23882727 29.5482255,4.4446956 29.1882191,4.80470209 C28.8282126,5.16470859 28.4756277,5.4850036 28.1303815,5.76564251 C27.7833075,6.04810915 27.6079013,6.3951831 27.6042182,6.80689207 C27.5986796,7.21674562 27.5774392,7.68015706 27.540497,8.19707101 C27.5035825,8.71401264 27.4343505,9.2724658 27.332801,9.87248586 C27.2312791,10.4725059 27.074344,11.1509797 26.8620232,11.9079072 C26.6497302,12.6648347 26.3912455,13.4033188 26.0866246,14.1233318 C25.7820037,14.8433448 25.4635365,15.4895011 25.1312228,16.0618283 C24.7989091,16.6341556 24.4942882,17.1187797 24.2173601,17.5157007 C23.940432,17.9126217 23.658907,18.2864746 23.3727295,18.6372594 C23.0865797,18.9880442 22.7247455,19.3831375 22.2871991,19.8225116 C21.8477974,20.2600579 21.6078115,20.5000715 21.5671861,20.5425246 C21.5247331,20.5831499 21.3438159,20.7345465 21.0243794,20.9966866 C20.7068537,21.2606821 20.3652906,21.5246777 19.9997455,21.7887009 C19.6360559,22.0508687 19.3018868,22.2696419 18.9972659,22.4450204 C18.692645,22.620399 18.3252722,22.8207011 17.8950922,23.0459544 C17.4667952,23.2730354 17.0033838,23.4835007 16.5049132,23.6773504 C16.0064427,23.8712 15.4802794,24.0512033 14.9264232,24.2173601 C14.3725671,24.383517 13.837182,24.5127593 13.3202404,24.6050594 C12.8033264,24.6973595 12.2171528,24.775841 11.5617471,24.8404483 L10.5786524,24.9373731 L10.5786524,24.9512195 L8.77861996,24.9512195 L8.77861996,24.9373731 L8.5432311,24.9235267 C8.38632365,24.914305 8.25708132,24.9050556 8.15553179,24.8958339 C8.05400996,24.8866122 7.67090766,24.8358236 7.00628028,24.7435235 C6.34165291,24.6512233 5.82011426,24.5588955 5.44163666,24.4665954 C5.06318676,24.3742953 4.50008121,24.198889 3.75237541,23.940432 C3.00466961,23.6819751 2.36496576,23.4207211 1.83326385,23.1567256 C1.30341737,22.8945578 0.971103679,22.7284009 0.836322785,22.6582551 C0.703397309,22.5899369 0.553856149,22.5050308 0.387699304,22.4034812 L0.138464037,22.2511708 L0.132953169,22.2428629 L0.124617634,22.2373244 L0.116309791,22.2317858 L0.11077123,22.223478 L0.0830784223,22.2096316 L0.0553856149,22.1957852 L0.0498747462,22.1874773 L0.0415392112,22.1819388 L0.0332313689,22.1764002 L0.0276928074,22.1680924 L0.0221819388,22.1597845 L0.0138464037,22.154246 L0,22.154246 L0,22.0988603 L0.0276928074,22.1043989 L0.0553856149,22.1127067 L0.180003248,22.1265532 C0.263081671,22.1357749 0.489248829,22.1496213 0.858477031,22.1680924 C1.22773293,22.1865635 1.62002924,22.1865635 2.03542135,22.1680924 C2.45081346,22.1496213 2.87545497,22.108082 3.30929049,22.0434747 C3.7431537,21.9788674 4.25547064,21.8680962 4.8462413,21.711161 C5.43703966,21.5542259 5.97981868,21.3677702 6.47460607,21.1517663 C6.96753805,20.9339347 7.31829515,20.771461 7.52693276,20.6643729 C7.73368726,20.5591403 8.04938526,20.3634352 8.47399908,20.0772854 L9.11093365,19.6480469 L9.11647221,19.639739 L9.12478005,19.6342005 L9.13311559,19.6286619 L9.13862646,19.6203541 L9.14416502,19.6120462 L9.15247286,19.6065077 L9.1608084,19.6009691 L9.16631927,19.5926613 L9.19401207,19.5843534 L9.22170488,19.5788149 L9.22724344,19.5511221 L9.23555128,19.5234293 L9.24388682,19.5178907 L9.24939769,19.5095828 L9.02785523,19.4957364 C8.88016949,19.4865147 8.73708075,19.4772653 8.59861671,19.4680436 C8.46015268,19.4588219 8.24323492,19.4172827 7.94783574,19.343426 C7.65246425,19.2695693 7.33399697,19.1587981 6.99243388,19.0111123 C6.65089849,18.8634266 6.3185848,18.6880203 5.99549281,18.484949 C5.67242852,18.2818776 5.43886738,18.1129238 5.29486478,17.9781706 C5.1527176,17.8452174 4.96808966,17.656934 4.74100864,17.4132373 C4.51578303,17.1677129 4.32007796,16.9156807 4.15392112,16.6572237 C3.98776427,16.3987667 3.82900141,16.1005706 3.67763252,15.762746 L3.44775453,15.2587369 L3.43390812,15.2171977 L3.42006172,15.1756585 L3.41175388,15.1479657 L3.40621532,15.1202729 L3.44775453,15.1258114 L3.48929374,15.1341193 L3.79391462,15.1756585 C3.99701367,15.2033513 4.31548096,15.212573 4.74931648,15.2033513 C5.18317969,15.1941296 5.48317588,15.1756585 5.64933272,15.1479657 C5.81548956,15.1202729 5.91703909,15.1018018 5.9539536,15.0925801 L6.00933922,15.0787337 L6.07857124,15.0648873 L6.14780325,15.0510408 L6.15334182,15.042733 L6.16164966,15.0371944 L6.16998519,15.0316559 L6.17549606,15.023348 L6.12011045,15.0095016 L6.06472483,14.9956552 L6.00933922,14.9818088 L5.9539536,14.9679624 L5.89856799,14.954116 C5.86165347,14.9448943 5.79704615,14.9264232 5.70471833,14.8987304 C5.61241821,14.8710376 5.36318294,14.7694881 4.95701253,14.5941095 C4.55086982,14.418731 4.22777783,14.2479494 3.98776427,14.0817926 C3.74715574,13.9151541 3.5177361,13.7329135 3.30098265,13.5362443 C3.08497875,13.3368561 2.84776216,13.0802268 2.5892775,12.7663842 C2.33082052,12.4525416 2.10005636,12.0879105 1.89695731,11.6725183 C1.69388595,11.2571262 1.54157551,10.8602052 1.44002599,10.4817276 C1.33888481,10.1054763 1.27215672,9.72080957 1.24066547,9.33247611 L1.19079072,8.75092715 L1.21848353,8.75646572 L1.24617634,8.76477356 L1.27386914,8.77861996 L1.30156195,8.79246637 L1.32925476,8.80631277 L1.35694757,8.82015917 L1.78618608,9.01400882 C2.07236355,9.14325116 2.42774535,9.25402239 2.85235917,9.34632251 C3.27700068,9.43862264 3.53083295,9.48941125 3.61391137,9.49863296 L3.73852901,9.51247936 L3.98776427,9.51247936 L3.9822534,9.50417152 L3.97391787,9.49863296 L3.96561003,9.49309439 L3.96007147,9.48478655 L3.9545606,9.47647871 L3.94622506,9.47094015 L3.93791722,9.46540159 L3.93237866,9.45709374 L3.90468585,9.44324734 L3.87699304,9.42940094 L3.87148217,9.42109309 L3.86314664,9.41555453 L3.8548388,9.41001597 L3.84930024,9.40170813 L3.82160743,9.38786173 L3.79391462,9.37401532 L3.78840375,9.36570748 C3.78286519,9.36199664 3.70346991,9.30292789 3.55021792,9.18847351 C3.39882134,9.07216372 3.24005847,8.9217087 3.07390163,8.73708075 C2.90774478,8.5524528 2.74158794,8.35860315 2.57543109,8.15553179 C2.40896833,7.95199515 2.26070369,7.73423146 2.13234617,7.50475082 C2.00313153,7.27398665 1.86649522,6.9804152 1.72249262,6.62411954 C1.58034544,6.26965161 1.47234349,5.91241439 1.39848678,5.55240789 C1.32465775,5.1924014 1.28311854,4.8370196 1.27386914,4.48623481 C1.26464744,4.13545001 1.27386914,3.83545383 1.30156195,3.58621856 C1.32925476,3.3369833 1.38464037,3.05543052 1.46771879,2.74158794 C1.55079722,2.42774535 1.67081784,2.09543166 1.82772529,1.74464687 L2.06311416,1.21848353 L2.07696056,1.17694432 L2.09080696,1.13540511 L2.0991425,1.12986654 L2.10465337,1.1215587 L2.11019193,1.11325086 L2.11849977,1.1077123 L2.1268353,1.11325086 L2.13234617,1.1215587 L2.13788474,1.12986654 L2.14619258,1.13540511 L2.15452811,1.14094367 L2.16003898,1.14925151 L2.16557754,1.15755935 L2.17388538,1.16309791 L2.18773179,1.19079072 L2.20157819,1.21848353 L2.20991373,1.22402209 L2.2154246,1.23232993 L2.5892775,1.64772204 C2.83851276,1.92465012 3.13391194,2.2338957 3.47544733,2.57543109 C3.81701042,2.91696649 4.00623538,3.09420045 4.04314989,3.107133 C4.08009209,3.12189326 4.12622831,3.16434634 4.18161392,3.23451991 C4.23699954,3.30283807 4.42162749,3.46622563 4.73547007,3.7246826 C5.04934035,3.98313957 5.46010777,4.28316345 5.96780001,4.62469884 C6.47551994,4.96623424 7.03859779,5.30317263 7.65706126,5.63548632 C8.27555242,5.96780001 8.9401798,6.26779619 9.6509434,6.53550256 C10.3617347,6.80320893 10.8602052,6.97858748 11.146355,7.0616659 C11.4325325,7.14474432 11.9217536,7.25089085 12.6140738,7.38013319 C13.306394,7.50937552 13.8279603,7.59245394 14.1787174,7.62936845 C14.5295022,7.66628296 14.7695158,7.68752335 14.8987304,7.69306191 L15.0925801,7.69860047 L15.0870692,7.65706126 L15.0787337,7.61552205 L15.023348,7.26936196 C14.9864335,7.03859779 14.9679624,6.71550581 14.9679624,6.30011369 C14.9679624,5.88472158 15.0002799,5.50164698 15.0648873,5.15086219 C15.1295223,4.80007739 15.2264471,4.4446956 15.3556617,4.0846891 C15.4849041,3.7246826 15.6113771,3.43573585 15.7350532,3.21790423 C15.8606124,3.00190033 16.0249138,2.75543434 16.2279852,2.47850627 C16.4310842,2.20157819 16.6941659,1.91542841 17.0172302,1.62002924 C17.3403222,1.32463006 17.7095504,1.06154839 18.1249425,0.830784223 C18.5403346,0.600020059 18.9234369,0.424613817 19.274194,0.304620882 C19.6249788,0.184627947 19.920378,0.106146531 20.1603638,0.0692320186 C20.4003774,0.0323175063 20.5203703,0.011077123 20.5203703,0.00553856149 Z"></path>
        </g>
    </g>
</svg>